/* XPM */
static char *b08749044c084676f3bb7812a1ce56b4[] = {
/* columns rows colors chars-per-pixel */
"64 64 72 1 ",
"  c #030302",
". c #0F0F0C",
"X c #10100E",
"o c #0C1613",
"O c #0C1C1A",
"+ c #151513",
"@ c #181816",
"# c #101F1C",
"$ c #1D1D1B",
"% c #1F221F",
"& c #20201E",
"* c #152422",
"= c #242523",
"- c #282826",
"; c #2D2D2B",
": c #21302D",
"> c #31312F",
", c #253532",
"< c #2F3835",
"1 c #343432",
"2 c #393937",
"3 c #3D3D3B",
"4 c #41413F",
"5 c #3D4442",
"6 c #454543",
"7 c #494947",
"8 c #4B4C4B",
"9 c #50504E",
"0 c #4F5351",
"q c #555554",
"w c #535857",
"e c #585856",
"r c #5C5C5B",
"t c #61615F",
"y c #646462",
"u c #696967",
"i c #6A6A69",
"p c #747472",
"a c #787877",
"s c #7B7B7A",
"d c #E30613",
"f c #EB0513",
"g c #F10412",
"h c #80807F",
"j c #858584",
"k c #898987",
"l c #858988",
"z c #8C8C8B",
"x c #90908F",
"c c #949493",
"v c #979C9A",
"b c #9C9C9B",
"n c #9EA09F",
"m c #A5A5A4",
"M c #A8A8A7",
"N c #ACACAB",
"B c #B0B0AF",
"V c #B3B3B2",
"C c #B8B8B7",
"Z c #BCBCBC",
"A c #C0C0BF",
"S c #C4C4C3",
"D c #C8C8C7",
"F c #CBCBCB",
"G c #D0D0CF",
"H c #D3D3D3",
"J c #DBDBDB",
"K c #E4E4E4",
"L c #ECECEB",
"P c #F3F3F3",
"I c #FFFFFF",
"U c None",
/* pixels */
"UUUUUUUUUUUUUUUUUUUUUUUUUUUUUUUUUUUUUUUUUUUUUUUUUUUUUUUUUUUUUUUU",
"UUUUUUUUUUUUUUUUUUUUUUUUUUUUUUUUUUUUUUUUUUUUUUUUUUUUUUUUUUUUUUUU",
"UUUUUUUUUUUUUUUUUUUUUUUUUUUUUUUUUUU=16qq94=@UUUUUUUUUUUUUUUUUUUU",
"UUUUUUUUUUUUUUUUUUUUUUUUUUUUUUUU3aNJPIIILG1.$$$UUUUUUUUUUUUUUUUU",
"UUUUUUUUUUUUUUUUUUUUUUUUUUUUU@rCPIIILFNVVMz6@+@$$UUUUUUUUUUUUUUU",
"UUUUUUUUUUUUUUUUUUUUUUUUUUUUqGIIIIGmNFLPIIIIZy@+$$$UUUUUUUUUUUUU",
"UUUUUUUUUUUUUUUUUUUUUUUUUU;bPJCcpyVLIIIIIIIIIIA6X@$$$UUUUUUUUUUU",
"UUUUUUUUUUUUUUUUUUUUUUUUU6pr1$@. eIIIIIIIIIIIIIPa@++@@UUUUUUUUUU",
"UUUUUUUUUUUUUUUUUUUUUUUUej$+@@$$XsIIIIIIIIIIIIIIIpqr3$+UUUUUUUUU",
"UUUUUUUUUUUUUUUUUUUUUUUqZ;@$$$$$.cIIIIIIIIIIIIIIImJIIGu+UUUUUUUU",
"UUUUUUUUUUUUUUUUUUUUUU2Jq+$$$$$$@NIIIIIIIIIIIIIIImKIIIIz+UUUUUUU",
"UUUUUUUUUUUUUUUUUUUUU$Sx.$$$$$$$$GIIIIIIIIIIIIIIIMKIIIIIqUUUUUUU",
"UUUUUUUUUUUUUUUUUUUUUjD$@$$$$$$@@GIIIIIIIIIIIIIIINPIIIIIH=UUUUUU",
"UUUUUUUUUUUUUUUUUUUU2G4+$$$$$@X-uxGIIIIIIIIIIIIIIVPIIIIIIxUUUUUU",
"UUUUUUUUUUUUUUUUUUU+uu.$$$&$+@uHIPVMKIIIIIIIIIIIPVIIIIIIII9UUUUU",
"UUUUUUUUUUUUUUUUUUU@sJeX$$@X8ZIIIIIKMCPIIIIIIIKmqeIIIIIIIIZUUUUU",
"UUUUUUUUUUUUUUUUUUUyIIK6++;bIIIIIIIIIGmFIIIGcq=@.+mIIIIIIII6UUUU",
"UUUUUUUUUUUUUUUUUU=HIIIJ;6KIIIIIIIIIIIISzh7=++@$$@1KIIIIIIIhUUUU",
"UUUUUUUUUUUUUUUUUU0IIIIIxDIIIIIIIIIIIIIIj +@$$$$$$.iIIIIIIIm+UUU",
"UUUUUUUUUUUUUUUUUUsIIIIIMKIIIIIIIIIIIIIIb.$$$$$$$$@@CIIIIIIV@UUU",
"UUUUUUUUUUUUUUUfUUnIIIIINPIIIIIIIIIIIIIIc.$$$&$$$$$@3LIIIIIV@UUU",
"UUUUUUUUUUUUUUdgUOZIIIIPNIIIIIIIIIIIIIIIx.$$$$$$$$$$XaIIIIIb+UUU",
"UUUUUUUUUUUUUddgU*GIIIILVIIIIIIIIIIIIIIIz.$$$$$$$$$$@@NLLPIz.UUU",
"UUUUUUUUUUUUdddgU*JIIIILVIIIIIIIIIIIIIIIj.$$$$$$&$$$$+rMNNV9+$UU",
"UUUUUUUUUUUddddgU*JIIIILNIIIIIIIIIIIIIIIs.$$$$$&$$$$.0IIIIIz.$UU",
"UUUUUUUUUddddddUU*HIIIILNIIIIIIIIIIIIIIIp.$$$$$$$$$+;JIIIIIV@UUU",
"UUUUUUUUddddddUUU$SIIIIPMIIIIIIIIIIIIIIIu.$$$$$$$$$+NIIIIIIS$UUU",
"UUUUUUUdddddUUUUU+mIIIIIxJIIIIIIIIIIIIIG6@.+$$$$$$.pIIIIIIIF$UUU",
"UUUUUUdddddUUUUUUUiIIIIK12CIIIIIIIIIIPMMKGz3@X@$$+4LIIIIIIIS$UUU",
"UUUUUddddUUUUUUUUU%FIIIu++@uJIIIIIIIFbHIIIIISh3@X$SIIIIIIIIM+UUU",
"UUUUddddUUUUUUUUUUo3KIm+@$@+;cPIIIJmCIIIIIIIIIISupIIIIIIIIIaUUUU",
"UUUddddUUUUUUUUdgUO-7C1@$$$$@+7SPNmLIIIIIIIIIIIIKMIIIIIIIIL2UUUU",
"UddddUUUUUUUUUdddUU8z+@$$$$$$$+@8GIIIIIIIIIIIIIILBIIIIIIIIc+UUUU",
"ddddUUUUUUUUUddddgU#Fx+$$$$$$$@.yIIIIIIIIIIIIIIILMIIIIIIIJ-UUUUU",
"dddUUUUUUUUUdddddUUUuIyX$$$$$$$+rIIIIIIIIIIIIIIIPMIIIIIIItXUUUUU",
"dUUUUUUUUUUdddddUUUU$GK=@%$$$$$@9IIIIIIIIIIIIIIIPmIIIIIIb+UUUUUU",
"UUUUUUUUUdddddUUUUUUUwIx+$$$$$$@3IIIIIIIIIIIIIIIImPIIIIG=UUUUUUU",
"UUUUUUUUdddddUUUUUUUUUvIq.$$$$$@1PIIIIIIIIIIIIIIImPIIIP6+UUUUUUU",
"UUUUUUUdddddUUUUUUUUUUUFK>@@@$@@=LIIIIIIIIIIIIIIPuzzhp6+UUUUUUUU",
"UUUUUUddddUUUUUUUUUddUU,KD$@@@@@@CIIIIIIIIIIIIIPp+X..X+UUUUUUUUU",
"UUUUUddddUUUUUUUUUdddfUU<JCCCVVBNbNKIIIIIIIIILc2@$$$$$UUUUUUUUUU",
"UUUdddddUUUUUUUUddddddUUUUlVIIIIIIJMNGPIIIIKk>X@$$$$$UUUUUUUUUUU",
"UUddddUUUUUUUUUddddddUUUUUUo6VIIIIIILZMMVCp-+@$$$$$UUUUUUUUUUUUU",
"UddddUUUUUUUUUdddddUUUUUUUUUUo7MPIIIIIIPLbX@$$$$$$UUUUUUUUUUUUUU",
"ddddUUUUUUUUUdddddUUUUUUUUfUUUU+1pMHPIIIIL4@$$$UUUUUUUUUUUUUUUUU",
"ddUUUUUUUUUUdddddUUUUUUUUdddfUUUUU+*:5895,*$UUUUUUUUUUUUUUUUUUUU",
"dUUUUUUUUUUddddUUUUUUUUUdddddUUUUUUUUUUUUUUUUUUUUUUUUUUUUUUUUUUU",
"UUUUUUUUUdddddUUUUUUUUddddddUUUUUUUUgUUUdUUUUUUUUUUUUUUUUUUUUUUU",
"UUUUUUUUdddddUUUUUUUUddddddUUUUUUUddddfddUUUUUUUUUUUUUUUUUUUUUUU",
"UUUUUUUddddUUUUUUUUUdddddUUUUUUUUddddddUUUUUUUUUUUUUUUUUUUUUUUUU",
"UUUUUUddddUUUUUUUUUdddddUUUUUUUUddddddUUUUUUUUUUUUUUUUUUUUUUUUUU",
"UUUUUddddUUUUUUUUUdddddUUUUUUUUddddddUUUUUUUUUUUUUUUUUUUUUUUUUUU",
"UUUddddUUUUUUUUUUddddUUUUUUUUUdddddUUUUUUUUUUUUUUUUUUUUUUUUUUUUU",
"UUddddUUUUUUUUUdddddUUUUUUUUUdddddUUUUUUUUUUUUUUUUUUUUUUUUUUUUUU",
"UddddUUUUUUUUUdddddUUUUUUUUUddddUUUUUUUUUUUUUUUUUUUUUUUUUUUUUUUU",
"dddUUUUUUUUUUddddUUUUUUUUUdddddUUUUUUUUUUUUUUUUUUUUUUUUUUUUUUUUU",
"ddUUUUUUUUUUddddUUUUUUUUUdddddUUUUUUUUUUUUUUUUUUUUUUUUUUUUUUUUUU",
"dUUUUUUUUUUddddUUUUUUUUUddddUUUUUUUUUUUUUUUUUUUUUUUUUUUUUUUUUUUU",
"UUUUUUUUUUdddUUUUUUUUUUddddUUUUUUUUUUUUUUUUUUUUUUUUUUUUUUUUUUUUU",
"UUUUUUUUddddUUUUUUUUUUddddUUUUUUUUUUUUUUUUUUUUUUUUUUUUUUUUUUUUUU",
"UUUUUUUddddUUUUUUUUUUdddUUUUUUUUUUUUUUUUUUUUUUUUUUUUUUUUUUUUUUUU",
"UUUUUUdddUUUUUUUUUUddddUUUUUUUUUUUUUUUUUUUUUUUUUUUUUUUUUUUUUUUUU",
"UUUUUdddUUUUUUUUUUdddUUUUUUUUUUUUUUUUUUUUUUUUUUUUUUUUUUUUUUUUUUU",
"UUUUddUUUUUUUUUUUdddUUUUUUUUUUUUUUUUUUUUUUUUUUUUUUUUUUUUUUUUUUUU"
};
