/* XPM */
static char *_2679910044d4a61cf0a38b8eb25d2be[] = {
/* columns rows colors chars-per-pixel */
"32 32 200 2 ",
"   c #030301",
".  c #040402",
"X  c #0C0C09",
"o  c #0C0C0A",
"O  c #0D0D0B",
"+  c #0E0E0B",
"@  c #0E0E0C",
"#  c #0F0F0D",
"$  c #10100E",
"%  c #11110F",
"&  c #121210",
"*  c #131311",
"=  c #141412",
"-  c #151512",
";  c #151413",
":  c #151513",
">  c #161614",
",  c #181816",
"<  c #191917",
"1  c #181A17",
"2  c #1A1A18",
"3  c #1B1B19",
"4  c #1C1C1A",
"5  c #1D1D1B",
"6  c #1E1E1C",
"7  c #1F1F1C",
"8  c #1F1F1D",
"9  c #15221F",
"0  c #20201E",
"q  c #212120",
"w  c #252523",
"e  c #272725",
"r  c #292826",
"t  c #292927",
"y  c #2B2B29",
"u  c #282D2A",
"i  c #2E2E2C",
"p  c #30302E",
"a  c #31312E",
"s  c #283D3B",
"d  c #323130",
"f  c #343432",
"g  c #353534",
"h  c #40413F",
"j  c #41413F",
"k  c #414140",
"l  c #434341",
"z  c #444443",
"x  c #4B4B49",
"c  c #4C4C4A",
"v  c #4C4C4B",
"b  c #4E4E4C",
"n  c #50504F",
"m  c #525250",
"M  c #535351",
"N  c #535352",
"B  c #575756",
"V  c #5B5756",
"C  c #585857",
"Z  c #5E5E5D",
"A  c #5B605E",
"S  c #60605F",
"D  c #61615F",
"F  c #626261",
"G  c #656563",
"H  c #686866",
"J  c #6B6B6A",
"K  c #6D6D6C",
"L  c #6E6E6D",
"P  c #706F6E",
"I  c #6F7473",
"U  c #707372",
"Y  c #777776",
"T  c gray47",
"R  c #7C7C7B",
"E  c #DB030F",
"W  c #E6010E",
"Q  c #E7010E",
"!  c #E20613",
"~  c #E30613",
"^  c #E40613",
"/  c #E60613",
"(  c #E70613",
")  c #EB0210",
"_  c #EB0512",
"`  c #ED0513",
"'  c #F00311",
"]  c #F00412",
"[  c #F80210",
"{  c #838381",
"}  c #848483",
"|  c #888887",
" . c #898988",
".. c #8B8B89",
"X. c #8B8B8A",
"o. c gray55",
"O. c #8E8E8D",
"+. c gray56",
"@. c #87918F",
"#. c #879390",
"$. c #8C9D9B",
"%. c gray59",
"&. c #979796",
"*. c #989897",
"=. c #999A99",
"-. c #9D9D9C",
";. c #9E9E9D",
":. c #9F9F9D",
">. c gray62",
",. c #8FA1A0",
"<. c #99A9A8",
"1. c #A0A0A0",
"2. c #A2A2A1",
"3. c #A5A5A4",
"4. c gray65",
"5. c #A1ADAC",
"6. c #AAAAA9",
"7. c #ABADAC",
"8. c #ACACAC",
"9. c #ADADAC",
"0. c #AEAEAD",
"q. c #A3B1AF",
"w. c #B0B0AF",
"e. c #B6B6B5",
"r. c #B7B7B6",
"t. c gray72",
"y. c #B9B9B9",
"u. c #BBBBBA",
"i. c #B8BFBE",
"p. c #BEBEBD",
"a. c #C0C0BF",
"s. c #B4C3C1",
"d. c #C3C3C2",
"f. c #C3C3C3",
"g. c gray78",
"h. c #C8C8C8",
"j. c gray79",
"k. c #CBCBCB",
"l. c #CCCDCC",
"z. c #CDCDCD",
"x. c #CECECD",
"c. c #CECECE",
"v. c #C3D0CE",
"b. c #CDD0D0",
"n. c gray82",
"m. c #D2D2D2",
"M. c #D3D3D2",
"N. c LightGray",
"B. c #D0D4D3",
"V. c gray83",
"C. c #D5D5D4",
"Z. c #D7D7D7",
"A. c #D8D8D8",
"S. c #DAD9D9",
"D. c #DADAD9",
"F. c #DADADA",
"G. c gray86",
"H. c #DCDCDB",
"J. c gainsboro",
"K. c #DDDDDD",
"L. c gray87",
"P. c #DFDFDF",
"I. c #D7E2E2",
"U. c #D9E4E3",
"Y. c #E1E1E1",
"T. c #E2E2E1",
"R. c #E2E2E2",
"E. c gray89",
"W. c #E4E4E3",
"Q. c #E4E4E4",
"!. c #E5E5E4",
"~. c #E6E6E5",
"^. c #E7E7E6",
"/. c gray91",
"(. c #E9E9E8",
"). c #EAEAEA",
"_. c gray92",
"`. c #ECECEC",
"'. c gray93",
"]. c #EFF1F1",
"[. c gray94",
"{. c #F1F1F1",
"}. c gray95",
"|. c #F3F3F3",
" X c #F4F4F4",
".X c #F5F5F4",
"XX c gray96",
"oX c #F6F6F5",
"OX c #F6F6F6",
"+X c gray97",
"@X c #F7F7F8",
"#X c #F8F8F8",
"$X c #F9F9F9",
"%X c gray98",
"&X c #FBFBFB",
"*X c #FDFDFD",
"=X c #FEFEFD",
"-X c #FEFEFE",
";X c gray100",
":X c None",
/* pixels */
":X:X:X:X:X:X:X:X:X:X:X:X:X:X:X:X:X:X:X:X:X:X:X:X:X:X:X:X:X:X:X:X",
":X:X:X:X:X:X:X:X:X:X:X:X:X:X:X:Xk T -.2.| 6 @ :X:X:X:X:X:X:X:X:X",
":X:X:X:X:X:X:X:X:X:X:X:X:X:XG d. XY.K.Y.~.w.B : : :X:X:X:X:X:X:X",
":X:X:X:X:X:X:X:X:X:X:X:X:XD o.H Z K.$X-X-X-X-Xt.f O @ :X:X:X:X:X",
":X:X:X:X:X:X:X:X:X:X:X:XJ 0 @ . b -X-X-X-X-X-X-Xf.*. .i :X:X:X:X",
":X:X:X:X:X:X:X:X:X:X:X+.g > 6 O L -X-X-X-X-X-X-XF. X-XF.:X:X:X:X",
":X:X:X:X:X:X:X:X:X:XF C & 4 % : } `.-X-X-X-X-X-X~.[.-X-X2.:X:X:X",
":X:X:X:X:X:X:X:X:X:X .i % % N h. XN.V. X-X-X-XV.&.@X-X-X-XN :X:X",
":X:X:X:X:X:X:X:X:XA -Xy.y 2.-X-X-X-X/.N.p.o.x 7 O 7.-X-X-X7.:X:X",
":X:X:X:X:X:X:X:X:Xq.-X$Xd.-X-X-X-X-X-X-Xn   = 3 : p /.-X-Xc.:X:X",
":X:X:X:X:X:X:X) :Xv.-X XF.-X-X-X-X-X-X-XC % 7 4 4 O L -X-Xc.4 :X",
":X:X:X:X:X:X^ W :XI.-X`.K.-X-X-X-X-X-X-Xn % 4 4 6 2 : 6.Y.:.> :X",
":X:X:X:X:X~ ^ W :XU.-X`.K.-X-X-X-X-X-X-Xx % 4 4 6 @ D `.+Xp.< :X",
":X:X:X:X~ ~ :X:X:XB.-X Xh.-X-X-X-X-X-X/.k O % < : p ~.-X-XK.q :X",
":X:X:X~ ~ :X:X:X:X#.-Xk.t  . X-X-X$XV.n.Y.7.D e & r.-X-X-XM.:X:X",
":X:X~ ~ :X:X:X:X:Xu 7.v @ O j y.Y.h.W.-X-X-X-XW.-.$X-X-X-X3.:X:X",
"/ ! :X:X:X:X:X/ E :XI : 4 6 % $ -.$X-X-X-X-X-X-XF. X-X-X Xk :X:X",
"! :X:X:X:X:X/ / :X:X$.P @ 6 4 O 6.-X-X-X-X-X-X-XV. X-X-X} :X:X:X",
":X:X:X:X! ! ! :X:X:X:Xs.d = 3 O &.-X-X-X-X-X-X-XK.[.-Xy.< :X:X:X",
":X:X:X! ! / :X:X:X:X:X:X5.r 6 $ Y -X-X-X-X-X-X$XR v b w :X:X:X:X",
":X:X/ ! :X:X:X:X:X~ ) :X:X,.b.F.c.c.K.[.$X[.3.z & % & :X:X:X:X:X",
":X! ! :X:X:X:X/ ~ ~ :X:X:X:XV i.-X-X[.~.c.k O = 6 :X:X:X:X:X:X:X",
"/ ! :X:X:X:X! / / :X:X:X:X[ :X:Xs U =.<.@.9 1 :X:X:X:X:X:X:X:X:X",
":X:X:X:X:X! ! :X:X:X:X:X~ ~ :X:X:X:X:X:X:X:X:X:X:X:X:X:X:X:X:X:X",
":X:X:X:X/ ! :X:X:X:X~ ~ ~ :X:X:X:X` _ ] :X:X:X:X:X:X:X:X:X:X:X:X",
":X:X:X! ! :X:X:X:X~ ~ ~ :X:X:X:X~ ~ ~ :X:X:X:X:X:X:X:X:X:X:X:X:X",
":X! ! :X:X:X:X:X~ ~ :X:X:X:X:X~ ~ :X:X:X:X:X:X:X:X:X:X:X:X:X:X:X",
"! / :X:X:X:X:X! ~ :X:X:X:X~ ~ ~ :X:X:X:X:X:X:X:X:X:X:X:X:X:X:X:X",
"! :X:X:X:X:X! ! :X:X:X:X~ ~ ~ :X:X:X:X:X:X:X:X:X:X:X:X:X:X:X:X:X",
":X:X:X:X/ ! :X:X:X:X:X~ ~ :X:X:X:X:X:X:X:X:X:X:X:X:X:X:X:X:X:X:X",
":X:X:X/ / :X:X:X:X:X~ ~ :X:X:X:X:X:X:X:X:X:X:X:X:X:X:X:X:X:X:X:X",
":X:X! ! :X:X:X:X:X~ :X:X:X:X:X:X:X:X:X:X:X:X:X:X:X:X:X:X:X:X:X:X"
};
