/* XPM */
static char *_96d41b55bc24a3c9aa858df9655eca0[] = {
/* columns rows colors chars-per-pixel */
"16 16 92 1 ",
"  c #020201",
". c #050502",
"X c #0A0A08",
"o c #0E0E0C",
"O c #0F0F0D",
"+ c #10100E",
"@ c #11100E",
"# c #1A1A17",
"$ c #1F211F",
"% c #20201E",
"& c #22221F",
"* c #323230",
"= c #3A3A38",
"- c #3B3B3A",
"; c #3E3E3C",
": c #6C2C2E",
"> c #40403E",
", c #474746",
"< c #474846",
"1 c #484846",
"2 c #405956",
"3 c #445C59",
"4 c #555553",
"5 c #595957",
"6 c #6C5353",
"7 c #6F6F6D",
"8 c #727271",
"9 c #737371",
"0 c #757573",
"q c #7F7F7E",
"w c #CF0003",
"e c #DC0004",
"r c #E80005",
"t c #EA000A",
"y c #F3000A",
"u c #E30613",
"i c #E40613",
"p c #E60613",
"a c #EB0411",
"s c #F10311",
"d c #804446",
"f c #A85659",
"g c #A55B5E",
"h c #AA7F80",
"j c #828281",
"k c #838382",
"l c #878786",
"z c #8C8C8A",
"x c #978282",
"c c #90908F",
"v c #9A9A99",
"b c #9A9A9A",
"n c #999C9C",
"m c #95A19F",
"M c #A0A0A0",
"N c #A4A4A3",
"B c gray66",
"V c #B4B4B4",
"C c #B6B6B5",
"Z c #BCBBBB",
"A c #BDBDBC",
"S c #B7C3C1",
"D c #C2C2C1",
"F c #C5C5C5",
"G c gray81",
"H c #D0D0CF",
"J c #D6D6D5",
"K c #D8D8D7",
"L c #D3D9D9",
"P c gray85",
"I c #DDDDDD",
"U c #DFDFDE",
"Y c #D0E0DE",
"T c gray88",
"R c #E5E5E4",
"E c #E6E6E5",
"W c #E9E8E8",
"Q c #EBEBEA",
"! c #ECECEC",
"~ c #EEEEEE",
"^ c #EFEFEF",
"/ c #EBF8F7",
"( c gray94",
") c #F9F9F9",
"_ c #FAF9F9",
"` c #FBFFFF",
"' c gray99",
"] c #FCFCFD",
"[ c #FEFEFE",
"{ c #FEFFFF",
"} c gray100",
"| c None",
/* pixels */
"||||||||jV7|||||",
"|||||||0A^Il%|||",
"||||||- M{{{Hb||",
"|||||5@4H^{RT{q|",
"||||6LN{{!0%1_I|",
"|||eh`_{{'*oXcJ>",
"||pwx{W{{(=.#DI1",
"|u||dm;V!RKzb{P|",
"u||s|3XoF{{{{{8|",
"||u||f2$Z{{)Bj||",
"|u||a||nL/S<@|||",
"|||u||y||g:|||||",
"||u||u||tr||||||",
"u|||u||p||||||||",
"|||u||p|||||||||",
"|||||u||||||||||"
};
